# xmcd
# 
# Track frame offsets:
#     150
#     22975
#     51548
# 
# Disc length: 1081
# 
# Revision: 1
# Processed by: cddbd v1.5.2PL0 Copyright (c) Steve Scherf et al.
# Submitted via: fre:ac v1.0.31
# 
DISCID=20043703
DTITLE=Various Artist - Special Bonus
DYEAR=2005
DGENRE=Jazz
TTITLE0=小曽根真 - Cubano Chant
TTITLE1=塩谷哲 - The Dew of Life
TTITLE2=小曽根真 塩谷哲 - Mambo Inn
EXTD=Recorded Live at Osaka Blue Note, February 21-26, 2005\nRecording and Mixing Engineer: Joe Ferla\nMastering Engineer: Greg Calbi
EXTT0=
EXTT1=
EXTT2=
PLAYORDER=
